<?xml version="1.0" encoding="UTF-8"?>
<!--Generator: Apple Native CoreSVG 326-->
<!DOCTYPE svg
PUBLIC "-//W3C//DTD SVG 1.1//EN"
       "http://www.w3.org/Graphics/SVG/1.1/DTD/svg11.dtd">
<svg version="1.1" xmlns="http://www.w3.org/2000/svg" xmlns:xlink="http://www.w3.org/1999/xlink" viewBox="0 0 16.2951 9.77073">
 <g>
  <rect height="9.77073" opacity="0" width="16.2951" x="0" y="0"/>
  <path d="M3.864 9.76097L12.103 9.76097C12.5868 9.76097 12.9708 9.35531 12.9708 8.87107C12.9708 8.38418 12.5899 7.98783 12.103 7.98783L3.864 7.98783C3.38021 7.98783 2.99629 8.39039 2.99629 8.87107C2.99629 9.3491 3.38332 9.76097 3.864 9.76097Z" fill="white"/>
  <path d="M2.37918 5.76372L13.5879 5.76372C14.0717 5.76372 14.4556 5.35806 14.4556 4.88048C14.4556 4.39359 14.0748 3.99725 13.5879 3.99725L2.37918 3.99725C1.89539 3.99725 1.51147 4.3998 1.51147 4.88048C1.51147 5.35185 1.89849 5.76372 2.37918 5.76372Z" fill="white"/>
  <path d="M0.867711 1.77314L15.066 1.77314C15.5565 1.77314 15.9337 1.36747 15.9337 0.889899C15.9337 0.396346 15.5596 0 15.066 0L0.867711 0C0.383924 0 0 0.402557 0 0.889899C0 1.36126 0.38703 1.77314 0.867711 1.77314Z" fill="white"/>
 </g>
</svg>
