<?xml version="1.0" encoding="UTF-8"?>
<svg id="Layer_1" data-name="Layer 1" xmlns="http://www.w3.org/2000/svg" viewBox="0 0 1000 500">
  <defs>
    <style>
      .cls-1 {
        fill: none;
        stroke: #fff;
        stroke-linejoin: bevel;
        stroke-width: 70px;
      }
    </style>
  </defs>
  <path class="cls-1" d="M315.88,256.52v-6.72s0,6.72,0,6.72c0,153.93,102.59,205.74,102.59,205.74,0,0-247.18-35.52-368.55-205.74v-6.72.64-6.72C171.29,73.52,418.47,38,418.47,38c0,0-102.59,51.8-102.59,205.74v6.72s0-6.72,0-6.72"/>
  <path class="cls-1" d="M684.64,243.74v6.72s0-6.72,0-6.72c0-153.93-102.59-205.74-102.59-205.74,0,0,247.18,35.52,368.55,205.74v6.72-.64,6.72c-121.37,170.21-368.55,205.74-368.55,205.74,0,0,102.59-51.8,102.59-205.74v-6.72s0,6.72,0,6.72"/>
</svg>